custom-analysis
version=1
nRows=5
nColumns=98
inDegrees=no

This file contains tibia displacement and acting force.

Units are S.I. units (seconds, meters, Newtons, ...)
Angles are in degrees.

endheader
time	APT	SIT	knee_angle	aACL_R_force	pACL_R_force	aPCL_R_force	pPCL_R_force	aMCL_R_force	mMCL_R_force	pMCL_R_force	aLCL_R_force	mLCL_R_force	pLCL_R_force	aPCL_L_force	pPCL_L_force	aMCL_L_force	aLCL_L_force	aACL_R_length	pACL_R_length	aPCL_R_length	pPCL_R_length	aMCL_R_length	mMCL_R_length	pMCL_R_length	aLCL_R_length	mLCL_R_length	pLCL_R_length	aPCL_L_length	pPCL_L_length	aMCL_L_length	aLCL_L_length	aACL_R_strain	pACL_R_strain	aPCL_R_strain	pPCL_R_strain	aMCL_R_strain	mMCL_R_strain	pMCL_R_strain	aLCL_R_strain	mLCL_R_strain	pLCL_R_strain	aPCL_L_strain	pPCL_L_strain	aMCL_L_strain	aLCL_L_strain	femur_lat_meniscii_r.femur_lat_r.force.X	femur_lat_meniscii_r.femur_lat_r.force.Y	femur_lat_meniscii_r.femur_lat_r.force.Z	femur_lat_meniscii_r.femur_lat_r.torque.X	femur_lat_meniscii_r.femur_lat_r.torque.Y	femur_lat_meniscii_r.femur_lat_r.torque.Z	femur_lat_meniscii_r.meniscus_lat_r.force.X	femur_lat_meniscii_r.meniscus_lat_r.force.Y	femur_lat_meniscii_r.meniscus_lat_r.force.Z	femur_lat_meniscii_r.meniscus_lat_r.torque.X	femur_lat_meniscii_r.meniscus_lat_r.torque.Y	femur_lat_meniscii_r.meniscus_lat_r.torque.Z	femur_med_meniscii_r.femur_med_r.force.X	femur_med_meniscii_r.femur_med_r.force.Y	femur_med_meniscii_r.femur_med_r.force.Z	femur_med_meniscii_r.femur_med_r.torque.X	femur_med_meniscii_r.femur_med_r.torque.Y	femur_med_meniscii_r.femur_med_r.torque.Z	femur_med_meniscii_r.meniscus_med_r.force.X	femur_med_meniscii_r.meniscus_med_r.force.Y	femur_med_meniscii_r.meniscus_med_r.force.Z	femur_med_meniscii_r.meniscus_med_r.torque.X	femur_med_meniscii_r.meniscus_med_r.torque.Y	femur_med_meniscii_r.meniscus_med_r.torque.Z	femur_med_tibia_r.tibia_upper_r.force.X	femur_med_tibia_r.tibia_upper_r.force.Y	femur_med_tibia_r.tibia_upper_r.force.Z	femur_med_tibia_r.tibia_upper_r.torque.X	femur_med_tibia_r.tibia_upper_r.torque.Y	femur_med_tibia_r.tibia_upper_r.torque.Z	femur_med_tibia_r.femur_med_r.force.X	femur_med_tibia_r.femur_med_r.force.Y	femur_med_tibia_r.femur_med_r.force.Z	femur_med_tibia_r.femur_med_r.torque.X	femur_med_tibia_r.femur_med_r.torque.Y	femur_med_tibia_r.femur_med_r.torque.Z	femur_lat_tibia_r.tibia_upper_r.force.X	femur_lat_tibia_r.tibia_upper_r.force.Y	femur_lat_tibia_r.tibia_upper_r.force.Z	femur_lat_tibia_r.tibia_upper_r.torque.X	femur_lat_tibia_r.tibia_upper_r.torque.Y	femur_lat_tibia_r.tibia_upper_r.torque.Z	femur_lat_tibia_r.femur_lat_r.force.X	femur_lat_tibia_r.femur_lat_r.force.Y	femur_lat_tibia_r.femur_lat_r.force.Z	femur_lat_tibia_r.femur_lat_r.torque.X	femur_lat_tibia_r.femur_lat_r.torque.Y	femur_lat_tibia_r.femur_lat_r.torque.Z	femur_lat_meniscii_force_r	femur_med_meniscii_force_r	femur_lat_tibia_force_r	femur_med_tibia_force_r
      0.10791397	      0.00863318	      0.00756991	     28.22136067	     15.07980769	    -11.75790331	      0.00000000	     60.30479166	      0.00000000	      0.00000000	    -35.38820251	      0.00000000	      0.00000000	      0.00000000	      0.00000000	      0.00000000	      0.00000001	      0.00000000	      0.03288439	      0.02577382	      0.03062531	      0.02991996	      0.05728635	      0.05962599	      0.05897678	      0.05309662	      0.05009821	      0.04655969	      0.01525851	      0.01651186	      0.06550154	      0.04489616	      0.06059849	      0.02853770	     -0.01511437	      0.00107619	     -0.04565703	     -0.00280142	      0.00423611	     -0.05145990	     -0.11045000	     -0.11048361	      0.00000079	     -0.32847694	      0.00000060	     -0.00000086	     22.23315708	    203.26467563	     30.20175944	    -17.31509569	      0.60358780	      8.44862279	    -22.23315708	   -203.26467563	    -30.20175944	      6.19909424	     -0.96564273	      2.17118183	    -21.43545669	     36.27702921	      2.15371801	     -0.01940369	      0.50617558	     -8.79842977	     21.43545669	    -36.27702921	     -2.15371801	     -0.72670499	     -0.48275986	      0.97817035	    -64.98667058	   -492.78762411	    120.59553422	    -11.90332140	      1.98367622	      1.68933532	     64.98667058	    492.78762411	   -120.59553422	     59.07921557	     -0.86684204	     28.29657072	    -53.89076866	   -247.08343885	    -61.04442507	      8.36720909	     -2.02473254	      0.81195532	     53.89076866	    247.08343885	     61.04442507	    -31.18533042	      1.27379279	     22.37166664	    206.69539885	     42.19170716	    260.15545840	    511.47452791
      0.10841140	      0.00865597	      0.00763783	     28.44539100	     15.33937603	    -11.46821594	      0.00000000	     56.08542299	      0.00000000	      0.00000000	    -36.88008758	      0.00000000	      0.00000000	      0.00000000	      0.00000000	      0.00000000	      0.00000001	      0.00000000	      0.03286897	      0.02575220	      0.03066687	      0.02995020	      0.05730517	      0.05962405	      0.05895188	      0.05309178	      0.05007920	      0.04652673	      0.01525851	      0.01651186	      0.06550154	      0.04489616	      0.06010136	      0.02767508	     -0.01377781	      0.00208786	     -0.04534335	     -0.00283386	      0.00381211	     -0.05154626	     -0.11078754	     -0.11111323	      0.00000079	     -0.32847694	      0.00000060	     -0.00000086	     26.46867035	    206.37781174	     29.12169376	    -16.93187417	      0.71048199	     10.20844281	    -26.46867035	   -206.37781174	    -29.12169376	      6.23165720	     -1.07173744	      2.07709345	    -20.76665993	     36.50200628	      2.31319739	     -0.08010420	      0.49253809	     -8.51567935	     20.76665993	    -36.50200628	     -2.31319739	     -0.72722254	     -0.47277022	      0.95599293	    -70.37349110	   -502.58186027	    122.82739215	    -12.14230137	      2.08913723	      1.59787939	     70.37349110	    502.58186027	   -122.82739215	     60.18256336	     -0.95116922	     30.58291479	    -55.47827893	   -245.36438243	    -60.13352290	      8.28261509	     -2.05874698	      0.76102788	     55.47827893	    245.36438243	     60.13352290	    -30.76065694	      1.31104485	     23.02774217	    210.09632252	     42.05949963	    258.64562663	    522.13745583
      0.10909635	      0.00869247	      0.00773270	     28.75575449	     15.89583809	    -10.88341758	      0.00000000	     54.01634259	      0.00000000	      0.00000000	    -36.76598564	      0.00000000	      0.00000000	      0.00000000	      0.00000000	      0.00000000	      0.00000001	      0.00000000	      0.03284936	      0.02572388	      0.03072173	      0.02998915	      0.05733080	      0.05962071	      0.05891697	      0.05308440	      0.05005220	      0.04648039	      0.01525851	      0.01651186	      0.06550154	      0.04489616	      0.05946888	      0.02654479	     -0.01201356	      0.00339110	     -0.04491639	     -0.00288974	      0.00321778	     -0.05167810	     -0.11126695	     -0.11199859	      0.00000079	     -0.32847694	      0.00000060	     -0.00000086	     28.70157936	    205.37189453	     29.49638614	    -17.06852343	      0.76343884	     11.13486978	    -28.70157936	   -205.37189453	    -29.49638614	      6.21761730	     -1.13542858	      2.01366916	    -19.64327596	     36.24652998	      2.65045718	     -0.22489440	      0.46603213	     -8.04781964	     19.64327596	    -36.24652998	     -2.65045718	     -0.71289008	     -0.45293922	      0.91858475	    -76.64433608	   -515.43925663	    125.16803297	    -12.42871666	      2.21770441	      1.52264841	     76.64433608	    515.43925663	   -125.16803297	     61.37790443	     -1.05456543	     33.24026496	    -57.06098383	   -242.51936429	    -59.87887443	      8.19524341	     -2.10375108	      0.71155935	     57.06098383	    242.51936429	     59.87887443	    -30.58809365	      1.35111785	     23.67577611	    209.45508472	     41.31215498	    256.23637044	    535.92818362
      0.10993487	      0.00874327	      0.00784904	     29.13836495	     16.37052012	    -10.34822336	      0.00000000	     54.48518221	      0.00000000	      0.00000000	    -35.49350675	      0.00000000	      0.00000000	      0.00000000	      0.00000000	      0.00000000	      0.00000001	      0.00000000	      0.03282790	      0.02569152	      0.03078786	      0.03003528	      0.05736365	      0.05961756	      0.05887525	      0.05307636	      0.05001993	      0.04642427	      0.01525851	      0.01651186	      0.06550154	      0.04489616	      0.05877661	      0.02525356	     -0.00988712	      0.00493435	     -0.04436915	     -0.00294244	      0.00250728	     -0.05182184	     -0.11183987	     -0.11307085	      0.00000079	     -0.32847694	      0.00000060	     -0.00000086	     27.83954754	    200.83803253	     29.96409113	    -17.15560037	      0.73410636	     10.76508083	    -27.83954754	   -200.83803253	    -29.96409113	      6.11005505	     -1.11205302	      2.03053665	    -18.63467337	     35.76429765	      3.00586175	     -0.38345524	      0.43713060	     -7.63239300	     18.63467337	    -35.76429765	     -3.00586175	     -0.69237363	     -0.43085072	      0.88813243	    -83.51840768	   -522.06706720	    126.81294907	    -12.60067318	      2.35645156	      1.39917424	     83.51840768	    522.06706720	   -126.81294907	     62.17706209	     -1.17218043	     36.12704094	    -56.78876637	   -237.40121984	    -59.25882625	      8.03621372	     -2.10325893	      0.72281758	     56.78876637	    237.40121984	     59.25882625	    -30.21012390	      1.35223707	     23.53555204	    204.96049003	     40.43972358	    251.18899589	    543.70108619
      0.11077339	      0.00879835	      0.00796539	     29.52344734	     16.07067366	    -10.52588017	      0.00000000	     56.09130483	      0.00000000	      0.00000000	    -34.71783483	      0.00000000	      0.00000000	      0.00000000	      0.00000000	      0.00000000	      0.00000001	      0.00000000	      0.03280787	      0.02566051	      0.03085410	      0.03008092	      0.05739823	      0.05961563	      0.05883479	      0.05306961	      0.04998868	      0.04636900	      0.01525851	      0.01651186	      0.06550154	      0.04489616	      0.05813052	      0.02401590	     -0.00775696	      0.00646150	     -0.04379315	     -0.00297479	      0.00181831	     -0.05194248	     -0.11239482	     -0.11412673	      0.00000079	     -0.32847694	      0.00000060	     -0.00000086	     27.08512201	    198.98227385	     30.49780152	    -17.33977919	      0.71345011	     10.44124891	    -27.08512201	   -198.98227385	    -30.49780152	      6.08007513	     -1.09859070	      2.07134512	    -18.07236536	     35.05757252	      3.49918833	     -0.60606573	      0.41898260	     -7.40834483	     18.07236536	    -35.05757252	     -3.49918833	     -0.66097592	     -0.42012841	      0.87589559	    -88.65268102	   -521.28493399	    125.30058354	    -12.53482428	      2.44374259	      1.28861066	     88.65268102	    521.28493399	   -125.30058354	     61.51627579	     -1.26770516	     38.25939024	    -57.12319751	   -230.53780373	    -57.73064121	      7.79734236	     -2.10388726	      0.68360519	     57.12319751	    230.53780373	     57.73064121	    -29.40830092	      1.36294352	     23.65879891	    203.11982926	     39.59656676	    244.42496921	    543.41284166
